<svg width="94" height="111" viewBox="0 0 94 111" fill="none" xmlns="http://www.w3.org/2000/svg">
<path d="M42.302 2.04347L42.8217 0.50286C43.0643 -0.215332 44.108 -0.146796 44.253 0.597096L44.6651 2.71312C44.6823 2.80164 44.7153 2.88731 44.7641 2.96299L46.9161 6.38689C47.0482 6.59678 47.0654 6.8595 46.9606 7.08509L45.9255 9.3282C45.8006 9.59805 45.8509 9.91646 46.0533 10.1349L46.55 10.6718C46.7266 10.8631 46.7898 11.133 46.7151 11.3828L44.7656 17.8708C44.6651 18.2078 44.8158 18.569 45.1288 18.7332L45.993 19.1901C46.2701 19.3372 46.4251 19.6413 46.3792 19.9497L42.0781 48.7673C42.0364 49.0486 42.1599 49.3285 42.3982 49.487L48.781 53.7547C48.8801 53.8218 48.9619 53.9103 49.0193 54.016L55.013 65.0373C55.1609 65.3086 55.1221 65.6413 54.9183 65.874L54.1014 66.8021C53.8215 67.1205 53.8674 67.606 54.2019 67.8672L54.6714 68.2342C54.9944 68.4869 55.0489 68.9538 54.7934 69.2737L50.3013 74.8835C50.1879 75.0249 50.1305 75.2019 50.1405 75.3833L50.3473 79.1998C50.3573 79.3897 50.442 79.5682 50.5813 79.6981L52.4476 81.4344C52.6931 81.6628 53.0635 81.6985 53.3491 81.52L54.5264 80.7847C54.7991 80.6148 55.1494 80.6391 55.3963 80.8432L62.8286 87.0286C62.919 87.1042 63.0252 87.1556 63.1401 87.1827L67.7499 88.2208C67.836 88.2408 67.9193 88.275 67.9939 88.3236L71.3289 90.5039C71.5485 90.6466 71.827 90.6652 72.0625 90.5495L72.8564 90.1626C73.0588 90.0641 73.2942 90.0612 73.4981 90.1569L83.6508 94.9015C83.9107 95.0229 84.0772 95.2828 84.0772 95.5683V97.6301C84.0772 97.8 84.1361 97.9642 84.2437 98.0956L93.8337 109.797C94.0304 110.038 94.0548 110.375 93.8954 110.642C93.6944 110.974 93.2695 111.096 92.9235 110.919L91.0586 109.974C90.9466 109.916 90.8217 109.889 90.6968 109.894L85.1022 110.082C84.8811 110.089 84.6687 109.998 84.5222 109.834L82.3358 107.378C82.1075 107.121 81.7314 107.055 81.4285 107.218L80.5944 107.666C80.2671 107.842 79.8593 107.749 79.6411 107.451L76.9694 103.781C76.8302 103.59 76.6062 103.476 76.3693 103.476H75.8066C75.4046 103.476 75.0758 103.157 75.0658 102.757L74.9337 97.563C74.9308 97.4388 74.8964 97.3188 74.8332 97.2117L73.1607 94.3461C73.0932 94.2305 72.9956 94.1348 72.8765 94.0705L71.2284 93.1696C71.0662 93.0811 70.8781 93.0554 70.6986 93.0982L67.5963 93.8364C67.3981 93.8835 67.2287 94.0091 67.1268 94.1848L65.7328 96.5906C65.6007 96.8191 65.3552 96.9604 65.0911 96.9604H63.0984C62.5974 96.9604 62.2414 96.4778 62.3907 96.0024L63.7459 91.7046C63.8852 91.2649 63.588 90.808 63.1286 90.7523L58.7428 90.2169C58.3681 90.1712 58.0881 89.8528 58.0924 89.4787L58.1355 84.794C58.1369 84.5756 58.0422 84.3671 57.8757 84.2257L55.3863 82.1154C55.1379 81.9055 54.7805 81.8813 54.5063 82.0555L52.7577 83.1677C52.5194 83.3191 52.2164 83.3234 51.9753 83.1777L50.4391 82.2554C50.1176 82.0626 49.7012 82.1383 49.4701 82.4338L47.6885 84.7183C47.5894 84.8454 47.4516 84.9368 47.2951 84.9782L44.154 85.8149C44.0521 85.842 43.9458 85.8477 43.8425 85.8306L33.8807 84.2043C33.7357 84.1801 33.6007 84.1144 33.4931 84.0144L27.4649 78.3803C27.3271 78.2518 27.1462 78.1804 26.9567 78.1804H22.2823C22.0569 78.1804 21.843 78.0776 21.7023 77.9019L18.3042 73.6599C18.1147 73.4229 18.0888 73.0945 18.2424 72.8318L19.6206 70.4602C19.8274 70.1046 19.701 69.6477 19.3407 69.4478L17.8721 68.6311C17.5778 68.4684 17.2102 68.5212 16.9777 68.7625L15.5995 70.1817C15.3698 70.4173 15.0123 70.4744 14.7209 70.3217L11.0873 68.4155C11.0083 68.3741 10.9236 68.347 10.8346 68.3356L5.7066 67.6888C5.56447 67.6702 5.42952 67.6117 5.32041 67.5189L3.14832 65.687C3.01481 65.5742 2.84397 65.5114 2.66882 65.5114H0.740781C0.331629 65.5114 0 65.1815 0 64.7746V60.9623C0 60.7781 0.0689099 60.5997 0.195245 60.464L4.89978 55.3596C5.02468 55.2239 5.09502 55.0455 5.09502 54.8613V49.6554C5.09502 49.5327 5.12661 49.4113 5.18547 49.3028L8.12562 43.9413C8.25483 43.7043 8.50462 43.5572 8.77596 43.5572H11.3457C11.4965 43.5572 11.6443 43.5116 11.7692 43.4259L15.8134 40.6302C16.0129 40.4917 16.1321 40.2661 16.1321 40.0248V36.5324C16.1321 36.3596 16.1924 36.194 16.3029 36.0612L22.779 28.3182C22.9197 28.1497 23.1293 28.0526 23.349 28.0526H25.6115C26.0651 28.0526 26.4126 27.6499 26.3437 27.203L26.0996 25.6139C26.068 25.4068 26.1254 25.1955 26.2604 25.0342L27.9817 22.9553C28.1224 22.7854 28.332 22.6868 28.5545 22.6868H31.977C32.3862 22.6868 32.7178 22.357 32.7178 21.9501V20.3638C32.7178 19.9569 33.0494 19.627 33.4586 19.627H35.0277C35.4369 19.627 35.7685 19.2972 35.7685 18.8903V18.7132C35.7685 18.4177 35.5905 18.1507 35.3163 18.035L35.0206 17.9108C34.508 17.6938 34.409 17.0141 34.8397 16.6629L35.8676 15.8205C36.0025 15.7105 36.093 15.5563 36.1246 15.385L36.2782 14.5626C36.3126 14.377 36.4189 14.2099 36.5725 14.1L38.4058 12.7807C38.8049 12.4937 38.8163 11.9054 38.4287 11.6027L37.4482 10.8388C37.118 10.5818 37.0678 10.1049 37.3362 9.7851L39.2628 7.49059C39.293 7.4549 39.3188 7.41635 39.3418 7.37637L42.2489 2.16627C42.2705 2.12629 42.2891 2.08488 42.3035 2.04347H42.302Z" fill="#F8F8F8"/>
</svg>
